<svg id="svg" version="1.1" xmlns="http://www.w3.org/2000/svg" xmlns:xlink="http://www.w3.org/1999/xlink" width="400" height="400" viewBox="0, 0, 400,400"><g id="svgg"><path id="path0" d="M178.700 0.275 C 176.555 0.360,174.800 0.602,174.800 0.814 C 174.800 1.027,173.540 1.200,172.000 1.200 C 170.400 1.200,169.200 1.371,169.200 1.600 C 169.200 1.822,168.133 2.000,166.800 2.000 C 165.467 2.000,164.400 2.178,164.400 2.400 C 164.400 2.620,163.410 2.800,162.200 2.800 C 160.990 2.800,160.000 2.980,160.000 3.200 C 160.000 3.420,159.100 3.600,158.000 3.600 C 156.900 3.600,156.000 3.780,156.000 4.000 C 156.000 4.220,155.280 4.400,154.400 4.400 C 153.520 4.400,152.800 4.580,152.800 4.800 C 152.800 5.020,152.181 5.200,151.424 5.200 C 150.667 5.200,149.948 5.360,149.827 5.556 C 149.706 5.751,148.976 6.021,148.204 6.156 C 147.432 6.290,146.170 6.510,145.400 6.644 C 144.630 6.778,144.000 7.048,144.000 7.244 C 144.000 7.440,143.471 7.600,142.824 7.600 C 142.177 7.600,141.551 7.756,141.432 7.947 C 141.314 8.139,140.449 8.434,139.509 8.603 C 138.569 8.773,137.576 8.984,137.302 9.073 C 137.029 9.161,136.264 9.336,135.602 9.462 C 134.941 9.588,134.400 9.850,134.400 10.045 C 134.400 10.240,134.048 10.400,133.619 10.400 C 132.836 10.400,132.066 10.671,128.904 12.057 C 127.972 12.465,126.847 12.800,126.404 12.800 C 125.962 12.800,125.600 12.980,125.600 13.200 C 125.600 13.420,125.240 13.600,124.800 13.600 C 124.360 13.600,124.000 13.780,124.000 14.000 C 124.000 14.220,123.561 14.400,123.024 14.400 C 122.487 14.400,121.936 14.580,121.800 14.800 C 121.664 15.020,121.203 15.200,120.776 15.200 C 120.349 15.200,120.000 15.380,120.000 15.600 C 120.000 15.820,119.640 16.000,119.200 16.000 C 118.760 16.000,118.400 16.180,118.400 16.400 C 118.400 16.620,118.040 16.800,117.600 16.800 C 117.160 16.800,116.800 16.980,116.800 17.200 C 116.800 17.420,116.361 17.600,115.824 17.600 C 115.287 17.600,114.736 17.780,114.600 18.000 C 114.464 18.220,114.003 18.400,113.576 18.400 C 113.149 18.400,112.800 18.580,112.800 18.800 C 112.800 19.020,112.440 19.200,112.000 19.200 C 111.560 19.200,111.200 19.346,111.200 19.525 C 111.200 19.704,110.570 20.098,109.800 20.400 C 109.030 20.702,108.400 21.096,108.400 21.275 C 108.400 21.454,108.055 21.600,107.633 21.600 C 107.212 21.600,106.807 21.735,106.733 21.900 C 106.660 22.065,105.745 22.633,104.700 23.163 C 103.655 23.692,102.800 24.277,102.800 24.463 C 102.800 24.648,102.524 24.800,102.187 24.800 C 101.419 24.800,97.447 26.779,97.267 27.251 C 97.193 27.443,96.878 27.600,96.567 27.600 C 96.255 27.600,96.000 27.780,96.000 28.000 C 96.000 28.220,95.764 28.400,95.475 28.400 C 95.187 28.400,94.564 28.760,94.092 29.200 C 93.620 29.640,93.022 30.000,92.764 30.000 C 92.505 30.000,92.003 30.316,91.647 30.703 C 91.291 31.089,90.505 31.660,89.900 31.970 C 89.295 32.281,88.800 32.685,88.800 32.868 C 88.800 33.050,88.480 33.200,88.088 33.200 C 87.697 33.200,87.117 33.560,86.800 34.000 C 86.483 34.440,85.943 34.800,85.600 34.800 C 85.257 34.800,84.717 35.160,84.400 35.600 C 84.083 36.040,83.575 36.400,83.272 36.400 C 82.969 36.400,82.217 36.940,81.600 37.600 C 80.983 38.260,80.326 38.801,80.140 38.802 C 79.953 38.803,79.225 39.343,78.522 40.002 C 77.819 40.661,77.120 41.200,76.969 41.200 C 76.817 41.200,76.358 41.588,75.947 42.061 C 75.536 42.535,75.200 42.777,75.200 42.600 C 75.200 42.423,74.864 42.665,74.453 43.139 C 74.042 43.612,73.502 44.000,73.253 44.000 C 73.004 44.000,72.800 44.180,72.800 44.400 C 72.800 44.620,72.615 44.800,72.389 44.800 C 72.164 44.800,71.169 45.610,70.179 46.600 C 69.189 47.590,68.215 48.400,68.015 48.400 C 67.815 48.400,65.615 50.461,63.126 52.980 C 57.468 58.705,58.270 57.905,53.581 62.517 C 51.392 64.671,49.600 66.546,49.600 66.683 C 49.600 66.821,49.335 67.218,49.011 67.566 C 48.686 67.915,47.608 69.070,46.615 70.132 C 45.621 71.195,44.410 72.635,43.923 73.332 C 43.437 74.030,42.850 74.732,42.619 74.894 C 42.389 75.056,42.363 75.191,42.561 75.194 C 42.760 75.197,42.535 75.536,42.061 75.947 C 41.588 76.358,41.200 76.826,41.200 76.986 C 41.200 77.147,40.660 77.783,40.000 78.400 C 39.340 79.017,38.800 79.720,38.800 79.964 C 38.800 80.208,38.260 80.972,37.600 81.663 C 36.940 82.354,36.400 83.122,36.400 83.371 C 36.400 83.620,36.040 84.083,35.600 84.400 C 35.160 84.717,34.800 85.297,34.800 85.688 C 34.800 86.080,34.650 86.400,34.468 86.400 C 34.285 86.400,33.881 86.895,33.570 87.500 C 33.260 88.105,32.689 88.891,32.303 89.247 C 31.916 89.603,31.600 90.148,31.600 90.459 C 31.600 90.769,31.240 91.283,30.800 91.600 C 30.360 91.917,30.000 92.329,30.000 92.516 C 30.000 92.703,29.460 93.641,28.800 94.600 C 28.140 95.559,27.600 96.522,27.600 96.739 C 27.600 96.956,27.465 97.193,27.300 97.267 C 26.826 97.477,24.800 101.438,24.800 102.154 C 24.800 102.509,24.620 102.800,24.400 102.800 C 24.180 102.800,24.000 103.036,24.000 103.325 C 24.000 103.613,23.640 104.236,23.200 104.708 C 22.760 105.180,22.400 105.829,22.400 106.150 C 22.400 106.471,22.177 106.808,21.904 106.899 C 21.228 107.124,20.708 106.671,35.800 119.009 C 43.060 124.944,49.360 130.098,49.800 130.461 C 50.240 130.825,52.310 132.537,54.400 134.265 C 56.490 135.994,58.674 137.766,59.254 138.204 C 60.162 138.890,69.479 146.515,71.800 148.472 C 72.240 148.842,75.840 151.780,79.800 155.000 C 83.760 158.219,87.317 161.111,87.705 161.427 C 88.623 162.174,88.611 162.180,88.716 160.900 C 88.766 160.295,88.985 159.740,89.203 159.667 C 89.422 159.593,89.600 159.222,89.600 158.842 C 89.600 158.461,89.975 157.374,90.433 156.426 C 90.891 155.477,91.365 154.094,91.485 153.351 C 91.606 152.608,91.861 152.000,92.052 152.000 C 92.244 152.000,92.400 151.640,92.400 151.200 C 92.400 150.760,92.580 150.400,92.800 150.400 C 93.020 150.400,93.200 150.040,93.200 149.600 C 93.200 149.160,93.380 148.800,93.600 148.800 C 93.820 148.800,94.000 148.440,94.000 148.000 C 94.000 147.560,94.180 147.200,94.400 147.200 C 94.620 147.200,94.800 146.840,94.800 146.400 C 94.800 145.960,94.980 145.600,95.200 145.600 C 95.420 145.600,95.600 145.240,95.600 144.800 C 95.600 144.360,95.780 144.000,96.000 144.000 C 96.220 144.000,96.400 143.680,96.400 143.288 C 96.400 142.897,96.750 142.324,97.179 142.015 C 97.607 141.707,97.879 141.327,97.783 141.172 C 97.687 141.017,97.877 140.668,98.204 140.396 C 98.532 140.124,98.800 139.654,98.800 139.351 C 98.800 139.048,98.980 138.800,99.200 138.800 C 99.420 138.800,99.600 138.530,99.600 138.200 C 99.600 137.870,99.780 137.600,100.000 137.600 C 100.220 137.600,100.400 137.330,100.400 137.000 C 100.400 136.670,100.580 136.400,100.800 136.400 C 101.020 136.400,101.200 136.122,101.200 135.782 C 101.200 135.442,101.605 134.745,102.100 134.232 C 102.595 133.720,103.310 132.783,103.689 132.150 C 104.951 130.041,105.395 129.416,106.093 128.765 C 106.474 128.409,107.022 127.663,107.311 127.107 C 108.839 124.162,124.112 108.868,127.153 107.239 C 127.729 106.930,128.491 106.345,128.847 105.939 C 129.203 105.532,129.744 105.200,130.051 105.200 C 130.357 105.200,130.832 104.840,131.107 104.400 C 131.382 103.960,131.830 103.600,132.103 103.599 C 132.377 103.599,133.230 103.059,134.000 102.400 C 134.770 101.741,135.625 101.201,135.900 101.201 C 136.175 101.200,136.400 101.020,136.400 100.800 C 136.400 100.580,136.636 100.400,136.925 100.400 C 137.213 100.400,137.836 100.040,138.308 99.600 C 138.780 99.160,139.332 98.800,139.534 98.800 C 139.737 98.800,140.124 98.532,140.396 98.204 C 140.668 97.877,141.017 97.687,141.172 97.783 C 141.327 97.879,141.707 97.607,142.015 97.179 C 142.324 96.750,142.897 96.400,143.288 96.400 C 143.680 96.400,144.000 96.220,144.000 96.000 C 144.000 95.780,144.360 95.600,144.800 95.600 C 145.240 95.600,145.600 95.420,145.600 95.200 C 145.600 94.980,145.960 94.800,146.400 94.800 C 146.840 94.800,147.200 94.620,147.200 94.400 C 147.200 94.180,147.560 94.000,148.000 94.000 C 148.440 94.000,148.800 93.820,148.800 93.600 C 148.800 93.380,149.160 93.200,149.600 93.200 C 150.040 93.200,150.400 93.020,150.400 92.800 C 150.400 92.580,150.760 92.400,151.200 92.400 C 151.640 92.400,152.000 92.220,152.000 92.000 C 152.000 91.780,152.370 91.600,152.822 91.600 C 153.274 91.600,154.894 91.068,156.422 90.418 C 157.950 89.768,159.203 89.363,159.206 89.518 C 159.209 89.673,159.344 89.594,159.506 89.341 C 159.668 89.089,160.250 88.819,160.800 88.741 C 161.350 88.664,161.900 88.466,162.022 88.302 C 162.145 88.138,162.730 87.964,163.322 87.915 C 163.915 87.866,164.400 87.685,164.400 87.513 C 164.400 87.341,164.940 87.200,165.600 87.200 C 166.260 87.200,166.800 87.020,166.800 86.800 C 166.800 86.580,167.419 86.400,168.176 86.400 C 168.933 86.400,169.664 86.220,169.800 86.000 C 169.936 85.780,170.667 85.600,171.424 85.600 C 172.181 85.600,172.800 85.420,172.800 85.200 C 172.800 84.980,173.520 84.800,174.400 84.800 C 175.280 84.800,176.000 84.620,176.000 84.400 C 176.000 84.180,176.889 84.000,177.976 84.000 C 179.063 84.000,180.064 83.820,180.200 83.600 C 180.336 83.380,181.607 83.200,183.024 83.200 C 184.475 83.200,185.600 83.025,185.600 82.800 C 185.600 82.558,187.325 82.400,189.976 82.400 C 192.463 82.400,194.460 82.227,194.600 82.000 C 194.932 81.463,205.200 81.463,205.200 82.000 C 205.200 82.243,207.000 82.400,209.800 82.400 C 212.600 82.400,214.400 82.557,214.400 82.800 C 214.400 83.025,215.525 83.200,216.976 83.200 C 218.393 83.200,219.664 83.380,219.800 83.600 C 219.936 83.820,220.937 84.000,222.024 84.000 C 223.111 84.000,224.000 84.180,224.000 84.400 C 224.000 84.620,224.720 84.800,225.600 84.800 C 226.480 84.800,227.200 84.980,227.200 85.200 C 227.200 85.420,227.819 85.600,228.576 85.600 C 229.333 85.600,230.064 85.780,230.200 86.000 C 230.336 86.220,231.067 86.400,231.824 86.400 C 232.581 86.400,233.200 86.580,233.200 86.800 C 233.200 87.020,233.740 87.200,234.400 87.200 C 235.060 87.200,235.600 87.341,235.600 87.513 C 235.600 87.685,236.095 87.866,236.700 87.916 C 237.305 87.966,237.860 88.185,237.933 88.403 C 238.007 88.622,238.592 88.800,239.233 88.800 C 239.875 88.800,240.400 88.950,240.400 89.133 C 240.400 89.317,240.625 89.474,240.900 89.482 C 241.651 89.506,242.575 89.771,242.800 90.028 C 243.167 90.445,246.405 91.600,247.208 91.600 C 247.644 91.600,248.000 91.780,248.000 92.000 C 248.000 92.220,248.360 92.400,248.800 92.400 C 249.240 92.400,249.600 92.580,249.600 92.800 C 249.600 93.020,249.960 93.200,250.400 93.200 C 250.840 93.200,251.200 93.380,251.200 93.600 C 251.200 93.820,251.560 94.000,252.000 94.000 C 252.440 94.000,252.800 94.180,252.800 94.400 C 252.800 94.620,253.160 94.800,253.600 94.800 C 254.040 94.800,254.400 94.980,254.400 95.200 C 254.400 95.420,254.760 95.600,255.200 95.600 C 255.640 95.600,256.000 95.780,256.000 96.000 C 256.000 96.220,256.320 96.400,256.712 96.400 C 257.103 96.400,257.676 96.750,257.985 97.179 C 258.293 97.607,258.673 97.879,258.828 97.783 C 258.983 97.687,259.332 97.877,259.604 98.204 C 259.876 98.532,260.346 98.800,260.649 98.800 C 260.952 98.800,261.200 98.980,261.200 99.200 C 261.200 100.136,263.893 99.589,265.137 98.400 C 265.828 97.740,266.585 97.200,266.820 97.200 C 267.055 97.200,267.136 97.020,267.000 96.800 C 266.864 96.580,267.048 96.400,267.408 96.400 C 267.768 96.400,268.754 95.680,269.600 94.800 C 270.446 93.920,271.313 93.200,271.527 93.200 C 271.741 93.200,272.743 92.418,273.755 91.463 C 274.766 90.508,275.654 89.787,275.728 89.861 C 275.801 89.935,276.706 89.186,277.738 88.198 C 278.770 87.209,279.773 86.400,279.967 86.400 C 280.160 86.400,281.238 85.500,282.361 84.400 C 283.485 83.300,284.597 82.400,284.833 82.400 C 285.070 82.400,285.954 81.680,286.800 80.800 C 287.646 79.920,288.510 79.200,288.722 79.200 C 288.934 79.200,289.757 78.480,290.552 77.600 C 291.347 76.720,292.152 76.000,292.340 76.000 C 292.528 76.000,293.248 75.458,293.941 74.797 C 294.633 74.135,295.200 73.693,295.200 73.815 C 295.200 73.937,295.641 73.623,296.181 73.118 C 297.637 71.755,298.400 71.146,298.400 71.349 C 298.400 71.448,299.221 70.731,300.224 69.756 C 301.228 68.781,302.245 68.104,302.486 68.253 C 302.748 68.415,302.809 68.339,302.638 68.062 C 302.481 67.808,302.542 67.600,302.773 67.600 C 303.004 67.600,303.709 67.060,304.340 66.400 C 304.971 65.740,305.630 65.200,305.805 65.200 C 305.980 65.200,306.809 64.480,307.646 63.600 C 308.483 62.720,309.323 62.000,309.513 62.000 C 309.703 62.000,310.822 61.100,312.000 60.000 C 313.178 58.900,314.369 58.000,314.648 58.000 C 314.927 58.000,315.435 57.600,315.777 57.111 C 316.120 56.622,316.400 56.371,316.400 56.553 C 316.400 56.736,316.922 56.326,317.560 55.642 C 318.199 54.959,318.905 54.400,319.130 54.400 C 319.354 54.400,320.244 53.680,321.107 52.800 C 321.969 51.920,322.894 51.200,323.161 51.200 C 323.429 51.200,323.536 51.020,323.400 50.800 C 323.264 50.580,323.361 50.400,323.616 50.400 C 323.871 50.400,324.583 49.860,325.200 49.200 C 325.817 48.540,326.491 48.000,326.698 48.000 C 327.364 48.000,328.400 46.566,328.400 45.645 C 328.400 45.154,328.254 44.843,328.075 44.954 C 327.896 45.064,326.951 44.446,325.975 43.580 C 323.503 41.387,323.268 41.200,322.977 41.200 C 322.836 41.200,322.217 40.660,321.600 40.000 C 320.983 39.340,320.271 38.800,320.018 38.800 C 319.764 38.800,318.981 38.261,318.278 37.602 C 317.575 36.943,316.815 36.403,316.588 36.402 C 316.362 36.401,315.917 36.040,315.600 35.600 C 315.283 35.160,314.703 34.800,314.312 34.800 C 313.920 34.800,313.600 34.650,313.600 34.468 C 313.600 34.285,313.105 33.881,312.500 33.570 C 311.895 33.260,311.109 32.689,310.753 32.303 C 310.397 31.916,309.852 31.600,309.541 31.600 C 309.231 31.600,308.717 31.240,308.400 30.800 C 308.083 30.360,307.671 30.000,307.484 30.000 C 307.297 30.000,306.359 29.460,305.400 28.800 C 304.441 28.140,303.478 27.600,303.261 27.600 C 303.044 27.600,302.807 27.465,302.733 27.300 C 302.523 26.826,298.562 24.800,297.846 24.800 C 297.491 24.800,297.200 24.620,297.200 24.400 C 297.200 24.180,296.964 24.000,296.675 24.000 C 296.387 24.000,295.764 23.640,295.292 23.200 C 294.820 22.760,294.156 22.400,293.817 22.400 C 293.478 22.400,293.200 22.220,293.200 22.000 C 293.200 21.780,292.840 21.600,292.400 21.600 C 291.960 21.600,291.596 21.465,291.592 21.300 C 291.587 21.135,290.237 20.371,288.592 19.601 C 286.946 18.832,285.600 18.067,285.600 17.901 C 285.600 17.736,285.060 17.600,284.400 17.600 C 283.740 17.600,283.200 17.420,283.200 17.200 C 283.200 16.980,282.840 16.800,282.400 16.800 C 281.960 16.800,281.600 16.620,281.600 16.400 C 281.600 16.180,281.240 16.000,280.800 16.000 C 280.360 16.000,280.000 15.820,280.000 15.600 C 280.000 15.380,279.550 15.200,279.000 15.200 C 278.450 15.200,278.000 15.020,278.000 14.800 C 278.000 14.580,277.550 14.400,277.000 14.400 C 276.450 14.400,276.000 14.220,276.000 14.000 C 276.000 13.780,275.651 13.600,275.224 13.600 C 274.797 13.600,274.336 13.420,274.200 13.200 C 274.064 12.980,273.513 12.800,272.976 12.800 C 272.439 12.800,272.000 12.620,272.000 12.400 C 272.000 12.180,271.728 12.000,271.395 12.000 C 271.062 12.000,270.477 11.833,270.095 11.629 C 269.370 11.242,268.086 10.745,267.400 10.586 C 267.180 10.536,265.601 10.023,263.892 9.447 C 262.182 8.871,260.337 8.400,259.792 8.400 C 259.246 8.400,258.800 8.220,258.800 8.000 C 258.800 7.780,258.069 7.600,257.176 7.600 C 256.196 7.600,255.651 7.442,255.800 7.200 C 255.944 6.967,255.537 6.800,254.824 6.800 C 254.151 6.800,253.600 6.620,253.600 6.400 C 253.600 6.180,252.880 6.000,252.000 6.000 C 251.120 6.000,250.400 5.820,250.400 5.600 C 250.400 5.380,249.680 5.200,248.800 5.200 C 247.920 5.200,247.200 5.020,247.200 4.800 C 247.200 4.580,246.401 4.400,245.424 4.400 C 244.447 4.400,243.536 4.220,243.400 4.000 C 243.264 3.780,242.364 3.600,241.400 3.600 C 240.436 3.600,239.536 3.420,239.400 3.200 C 239.264 2.980,238.443 2.800,237.576 2.800 C 236.709 2.800,236.000 2.620,236.000 2.400 C 236.000 2.174,234.867 2.000,233.400 2.000 C 231.933 2.000,230.800 1.826,230.800 1.600 C 230.800 1.372,229.611 1.200,228.033 1.200 C 226.204 1.200,225.211 1.034,225.103 0.709 C 224.941 0.224,188.617 -0.116,178.700 0.275 " stroke="none" fill="#f44434" fill-rule="evenodd"></path><path id="path1" d="M86.000 243.870 C 84.790 244.876,83.096 246.262,82.234 246.950 C 81.373 247.637,80.023 248.750,79.234 249.422 C 78.446 250.094,73.840 253.864,69.000 257.800 C 64.160 261.736,58.760 266.153,57.000 267.616 C 55.240 269.079,50.110 273.288,45.600 276.970 C 41.090 280.651,36.680 284.257,35.800 284.983 C 28.083 291.345,24.122 294.523,23.700 294.689 C 22.974 294.974,23.086 295.727,24.000 296.708 C 24.440 297.180,24.800 297.760,24.800 297.997 C 24.800 298.629,26.843 302.578,27.251 302.733 C 27.443 302.807,27.600 303.044,27.600 303.261 C 27.600 303.478,28.140 304.441,28.800 305.400 C 29.460 306.359,30.000 307.297,30.000 307.484 C 30.000 307.671,30.360 308.083,30.800 308.400 C 31.240 308.717,31.600 309.257,31.600 309.600 C 31.600 309.943,31.960 310.483,32.400 310.800 C 32.840 311.117,33.200 311.657,33.200 312.000 C 33.200 312.343,33.560 312.883,34.000 313.200 C 34.440 313.517,34.800 314.057,34.800 314.400 C 34.800 314.743,35.160 315.283,35.600 315.600 C 36.040 315.917,36.400 316.425,36.400 316.728 C 36.400 317.031,36.940 317.783,37.600 318.400 C 38.260 319.017,38.800 319.692,38.800 319.901 C 38.800 320.110,39.340 320.846,40.000 321.537 C 40.660 322.228,41.200 322.892,41.200 323.013 C 41.200 323.264,41.505 323.650,43.199 325.542 C 43.859 326.281,44.400 327.042,44.400 327.234 C 44.400 327.426,45.390 328.573,46.600 329.783 C 47.810 330.993,48.800 332.172,48.800 332.404 C 48.800 332.636,50.825 334.806,53.300 337.226 C 55.775 339.647,57.980 341.812,58.200 342.038 C 63.186 347.156,67.744 351.600,68.008 351.600 C 68.194 351.600,69.271 352.500,70.400 353.600 C 71.529 354.700,72.602 355.600,72.784 355.600 C 72.966 355.600,73.671 356.095,74.349 356.700 C 76.312 358.449,76.752 358.800,76.987 358.800 C 77.108 358.800,77.772 359.340,78.463 360.000 C 79.154 360.660,79.874 361.200,80.063 361.200 C 80.252 361.200,80.972 361.740,81.663 362.400 C 82.354 363.060,83.122 363.600,83.371 363.600 C 83.620 363.600,84.083 363.960,84.400 364.400 C 84.717 364.840,85.257 365.200,85.600 365.200 C 85.943 365.200,86.483 365.560,86.800 366.000 C 87.117 366.440,87.657 366.800,88.000 366.800 C 88.343 366.800,88.883 367.160,89.200 367.600 C 89.517 368.040,90.057 368.400,90.400 368.400 C 90.743 368.400,91.283 368.760,91.600 369.200 C 91.917 369.640,92.329 370.000,92.516 370.000 C 92.703 370.000,93.641 370.540,94.600 371.200 C 95.559 371.860,96.522 372.400,96.739 372.400 C 96.956 372.400,97.193 372.535,97.267 372.700 C 97.477 373.174,101.438 375.200,102.154 375.200 C 102.509 375.200,102.800 375.380,102.800 375.600 C 102.800 375.820,103.036 376.000,103.325 376.000 C 103.613 376.000,104.236 376.360,104.708 376.800 C 105.180 377.240,105.844 377.600,106.183 377.600 C 106.522 377.600,106.800 377.780,106.800 378.000 C 106.800 378.220,107.160 378.400,107.600 378.400 C 108.040 378.400,108.400 378.580,108.400 378.800 C 108.400 379.020,108.760 379.200,109.200 379.200 C 109.640 379.200,110.000 379.346,110.000 379.525 C 110.000 379.704,110.630 380.098,111.400 380.400 C 112.170 380.702,112.800 381.096,112.800 381.275 C 112.800 381.454,113.149 381.600,113.576 381.600 C 114.003 381.600,114.464 381.780,114.600 382.000 C 114.736 382.220,115.287 382.400,115.824 382.400 C 116.361 382.400,116.800 382.580,116.800 382.800 C 116.800 383.020,117.160 383.200,117.600 383.200 C 118.040 383.200,118.400 383.380,118.400 383.600 C 118.400 383.820,118.745 384.000,119.167 384.000 C 119.588 384.000,119.993 384.178,120.067 384.397 C 120.140 384.615,120.695 384.834,121.300 384.884 C 121.905 384.934,122.400 385.115,122.400 385.287 C 122.400 385.459,122.760 385.600,123.200 385.600 C 123.640 385.600,124.000 385.780,124.000 386.000 C 124.000 386.220,124.360 386.400,124.800 386.400 C 125.240 386.400,125.600 386.580,125.600 386.800 C 125.600 387.020,125.962 387.200,126.405 387.200 C 126.848 387.200,127.523 387.359,127.905 387.553 C 128.287 387.748,129.140 388.129,129.800 388.400 C 130.460 388.671,131.313 389.052,131.695 389.247 C 132.077 389.441,132.664 389.600,133.000 389.600 C 133.336 389.600,133.923 389.763,134.305 389.963 C 135.447 390.560,139.222 391.600,140.246 391.600 C 140.771 391.600,141.200 391.780,141.200 392.000 C 141.200 392.220,141.830 392.400,142.600 392.400 C 143.370 392.400,144.000 392.580,144.000 392.800 C 144.000 393.020,144.529 393.200,145.176 393.200 C 145.823 393.200,146.464 393.380,146.600 393.600 C 146.736 393.820,147.467 394.000,148.224 394.000 C 148.981 394.000,149.600 394.180,149.600 394.400 C 149.600 394.620,150.320 394.800,151.200 394.800 C 152.080 394.800,152.800 394.980,152.800 395.200 C 152.800 395.420,153.599 395.600,154.576 395.600 C 155.553 395.600,156.464 395.780,156.600 396.000 C 156.736 396.220,157.657 396.400,158.647 396.400 C 159.745 396.400,160.351 396.556,160.200 396.800 C 160.048 397.046,160.721 397.200,161.953 397.200 C 163.053 397.200,164.064 397.380,164.200 397.600 C 164.336 397.820,165.517 398.000,166.824 398.000 C 168.141 398.000,169.200 398.178,169.200 398.400 C 169.200 398.628,170.389 398.800,171.967 398.800 C 173.824 398.800,174.788 398.964,174.900 399.300 C 175.031 399.693,180.409 399.800,200.000 399.800 C 219.591 399.800,224.969 399.693,225.100 399.300 C 225.212 398.964,226.176 398.800,228.033 398.800 C 229.611 398.800,230.800 398.628,230.800 398.400 C 230.800 398.178,231.859 398.000,233.176 398.000 C 234.483 398.000,235.664 397.820,235.800 397.600 C 235.936 397.380,236.847 397.200,237.824 397.200 C 238.801 397.200,239.600 397.020,239.600 396.800 C 239.600 396.580,240.489 396.400,241.576 396.400 C 242.663 396.400,243.664 396.220,243.800 396.000 C 243.936 395.780,244.757 395.600,245.624 395.600 C 246.491 395.600,247.200 395.420,247.200 395.200 C 247.200 394.980,247.920 394.800,248.800 394.800 C 249.680 394.800,250.400 394.620,250.400 394.400 C 250.400 394.180,251.019 394.000,251.776 394.000 C 252.533 394.000,253.264 393.820,253.400 393.600 C 253.536 393.380,254.177 393.200,254.824 393.200 C 255.471 393.200,256.000 393.020,256.000 392.800 C 256.000 392.580,256.630 392.400,257.400 392.400 C 258.170 392.400,258.800 392.220,258.800 392.000 C 258.800 391.780,259.229 391.600,259.754 391.600 C 260.778 391.600,264.553 390.560,265.695 389.963 C 266.077 389.763,266.741 389.600,267.171 389.600 C 267.601 389.600,268.064 389.420,268.200 389.200 C 268.336 388.980,268.797 388.800,269.224 388.800 C 269.651 388.800,270.000 388.620,270.000 388.400 C 270.000 388.180,270.439 388.000,270.976 388.000 C 271.513 388.000,272.064 387.820,272.200 387.600 C 272.336 387.380,272.887 387.200,273.424 387.200 C 273.961 387.200,274.400 387.020,274.400 386.800 C 274.400 386.580,274.760 386.400,275.200 386.400 C 275.640 386.400,276.000 386.220,276.000 386.000 C 276.000 385.780,276.439 385.600,276.976 385.600 C 277.513 385.600,278.064 385.420,278.200 385.200 C 278.336 384.980,278.797 384.800,279.224 384.800 C 279.651 384.800,280.000 384.620,280.000 384.400 C 280.000 384.180,280.360 384.000,280.800 384.000 C 281.240 384.000,281.600 383.820,281.600 383.600 C 281.600 383.380,281.915 383.201,282.300 383.203 C 283.076 383.206,291.322 379.189,291.533 378.705 C 291.607 378.537,292.012 378.400,292.433 378.400 C 292.855 378.400,293.200 378.220,293.200 378.000 C 293.200 377.780,293.478 377.600,293.817 377.600 C 294.156 377.600,294.820 377.240,295.292 376.800 C 295.764 376.360,296.387 376.000,296.675 376.000 C 296.964 376.000,297.200 375.820,297.200 375.600 C 297.200 375.380,297.491 375.200,297.846 375.200 C 298.562 375.200,302.523 373.174,302.733 372.700 C 302.807 372.535,303.044 372.400,303.261 372.400 C 303.478 372.400,304.441 371.860,305.400 371.200 C 306.359 370.540,307.297 370.000,307.484 370.000 C 307.671 370.000,308.083 369.640,308.400 369.200 C 308.717 368.760,309.257 368.400,309.600 368.400 C 309.943 368.400,310.483 368.040,310.800 367.600 C 311.117 367.160,311.657 366.800,312.000 366.800 C 312.343 366.800,312.883 366.440,313.200 366.000 C 313.517 365.560,314.057 365.200,314.400 365.200 C 314.743 365.200,315.283 364.840,315.600 364.400 C 315.917 363.960,316.380 363.600,316.629 363.600 C 316.878 363.600,317.646 363.060,318.337 362.400 C 319.028 361.740,319.792 361.200,320.036 361.200 C 320.280 361.200,320.983 360.660,321.600 360.000 C 322.217 359.340,322.919 358.800,323.160 358.800 C 323.402 358.800,323.600 358.632,323.600 358.427 C 323.600 358.222,323.960 357.940,324.400 357.800 C 325.859 357.337,325.314 355.921,323.014 354.200 C 321.127 352.788,300.596 336.051,299.446 334.987 C 298.924 334.504,287.918 325.515,282.644 321.263 C 280.640 319.648,278.190 317.646,277.200 316.816 C 276.210 315.985,273.330 313.611,270.800 311.540 C 268.270 309.468,264.805 306.629,263.100 305.230 C 261.395 303.831,260.000 302.531,260.000 302.343 C 260.000 301.681,258.571 302.008,258.000 302.800 C 257.683 303.240,257.103 303.600,256.712 303.600 C 256.320 303.600,256.000 303.780,256.000 304.000 C 256.000 304.220,255.640 304.400,255.200 304.400 C 254.760 304.400,254.400 304.580,254.400 304.800 C 254.400 305.020,254.040 305.200,253.600 305.200 C 253.160 305.200,252.800 305.380,252.800 305.600 C 252.800 305.820,252.440 306.000,252.000 306.000 C 251.560 306.000,251.200 306.180,251.200 306.400 C 251.200 306.620,250.840 306.800,250.400 306.800 C 249.960 306.800,249.600 306.980,249.600 307.200 C 249.600 307.420,249.240 307.600,248.800 307.600 C 248.360 307.600,248.000 307.739,248.000 307.909 C 248.000 308.079,247.235 308.413,246.300 308.650 C 243.986 309.239,240.630 310.533,240.467 310.900 C 240.393 311.065,239.808 311.200,239.167 311.200 C 238.525 311.200,238.000 311.380,238.000 311.600 C 238.000 311.820,237.460 312.000,236.800 312.000 C 236.140 312.000,235.600 312.180,235.600 312.400 C 235.600 312.620,235.060 312.800,234.400 312.800 C 233.740 312.800,233.200 312.980,233.200 313.200 C 233.200 313.420,232.581 313.600,231.824 313.600 C 231.067 313.600,230.336 313.780,230.200 314.000 C 230.064 314.220,229.434 314.400,228.800 314.400 C 228.166 314.400,227.536 314.580,227.400 314.800 C 227.264 315.020,226.443 315.200,225.576 315.200 C 224.709 315.200,224.000 315.380,224.000 315.600 C 224.000 315.820,223.111 316.000,222.024 316.000 C 220.937 316.000,219.936 316.180,219.800 316.400 C 219.664 316.620,218.393 316.800,216.976 316.800 C 215.525 316.800,214.400 316.975,214.400 317.200 C 214.400 317.443,212.600 317.600,209.800 317.600 C 207.000 317.600,205.200 317.757,205.200 318.000 C 205.200 318.246,203.200 318.400,200.000 318.400 C 196.800 318.400,194.800 318.246,194.800 318.000 C 194.800 317.757,193.000 317.600,190.200 317.600 C 187.400 317.600,185.600 317.443,185.600 317.200 C 185.600 316.978,184.541 316.800,183.224 316.800 C 181.917 316.800,180.736 316.620,180.600 316.400 C 180.464 316.180,179.373 316.000,178.176 316.000 C 176.979 316.000,176.000 315.820,176.000 315.600 C 176.000 315.380,175.280 315.200,174.400 315.200 C 173.520 315.200,172.800 315.020,172.800 314.800 C 172.800 314.580,172.181 314.400,171.424 314.400 C 170.667 314.400,169.936 314.220,169.800 314.000 C 169.664 313.780,168.933 313.600,168.176 313.600 C 167.419 313.600,166.800 313.420,166.800 313.200 C 166.800 312.980,166.260 312.800,165.600 312.800 C 164.940 312.800,164.400 312.620,164.400 312.400 C 164.400 312.180,163.860 312.000,163.200 312.000 C 162.540 312.000,162.000 311.820,162.000 311.600 C 162.000 311.380,161.460 311.200,160.800 311.200 C 160.140 311.200,159.600 311.020,159.600 310.800 C 159.600 310.580,159.335 310.400,159.011 310.400 C 158.688 310.400,157.405 309.950,156.162 309.400 C 154.918 308.850,153.473 308.400,152.950 308.400 C 152.428 308.400,152.000 308.220,152.000 308.000 C 152.000 307.780,151.640 307.600,151.200 307.600 C 150.760 307.600,150.400 307.420,150.400 307.200 C 150.400 306.980,150.040 306.800,149.600 306.800 C 149.160 306.800,148.800 306.620,148.800 306.400 C 148.800 306.180,148.440 306.000,148.000 306.000 C 147.560 306.000,147.200 305.820,147.200 305.600 C 147.200 305.380,146.840 305.200,146.400 305.200 C 145.960 305.200,145.600 305.020,145.600 304.800 C 145.600 304.580,145.240 304.400,144.800 304.400 C 144.360 304.400,144.000 304.220,144.000 304.000 C 144.000 303.780,143.706 303.600,143.347 303.600 C 142.988 303.600,142.403 303.284,142.047 302.897 C 141.691 302.511,140.860 301.926,140.200 301.597 C 139.540 301.269,138.651 300.685,138.225 300.300 C 137.798 299.915,137.213 299.600,136.925 299.600 C 136.636 299.600,136.400 299.420,136.400 299.200 C 136.400 298.980,136.175 298.800,135.900 298.800 C 135.625 298.799,134.877 298.349,134.238 297.800 C 133.599 297.250,132.932 296.800,132.756 296.800 C 132.580 296.800,131.986 296.350,131.436 295.800 C 130.886 295.250,130.249 294.800,130.019 294.800 C 129.790 294.800,128.934 294.170,128.118 293.400 C 127.301 292.630,126.430 292.000,126.181 292.000 C 125.932 292.000,125.183 291.415,124.516 290.700 C 123.196 289.286,121.708 288.000,121.391 288.000 C 121.038 288.000,113.052 279.819,111.605 277.977 C 110.838 277.000,109.713 275.779,109.105 275.264 C 108.497 274.750,108.000 274.157,108.000 273.948 C 108.000 273.738,107.816 273.349,107.592 273.083 C 105.752 270.903,105.201 270.144,105.200 269.788 C 105.200 269.562,104.840 269.117,104.400 268.800 C 103.960 268.483,103.600 268.020,103.600 267.771 C 103.600 267.522,103.060 266.754,102.400 266.063 C 101.740 265.372,101.200 264.536,101.200 264.204 C 101.200 263.872,101.020 263.600,100.800 263.600 C 100.580 263.600,100.400 263.364,100.400 263.075 C 100.400 262.787,100.085 262.202,99.700 261.775 C 99.315 261.349,98.731 260.460,98.403 259.800 C 98.074 259.140,97.489 258.309,97.103 257.953 C 96.716 257.597,96.400 257.012,96.400 256.653 C 96.400 256.294,96.220 256.000,96.000 256.000 C 95.780 256.000,95.600 255.640,95.600 255.200 C 95.600 254.760,95.420 254.400,95.200 254.400 C 94.980 254.400,94.800 254.040,94.800 253.600 C 94.800 253.160,94.620 252.800,94.400 252.800 C 94.180 252.800,94.000 252.440,94.000 252.000 C 94.000 251.560,93.820 251.200,93.600 251.200 C 93.380 251.200,93.200 250.840,93.200 250.400 C 93.200 249.960,93.020 249.600,92.800 249.600 C 92.580 249.600,92.400 249.240,92.400 248.800 C 92.400 248.360,92.220 248.000,92.000 248.000 C 91.780 248.000,91.600 247.656,91.600 247.236 C 91.600 246.815,91.215 245.465,90.744 244.236 C 89.670 241.427,89.000 241.376,86.000 243.870 " stroke="none" fill="#2cb343" fill-rule="evenodd"></path><path id="path2" d="M21.300 108.198 C 21.025 108.511,20.800 109.029,20.800 109.350 C 20.800 109.671,20.664 109.993,20.498 110.067 C 20.332 110.140,19.593 111.460,18.856 113.000 C 18.119 114.540,17.355 116.113,17.158 116.495 C 16.961 116.877,16.800 117.462,16.800 117.795 C 16.800 118.128,16.620 118.400,16.400 118.400 C 16.180 118.400,16.000 118.760,16.000 119.200 C 16.000 119.640,15.820 120.000,15.600 120.000 C 15.380 120.000,15.200 120.349,15.200 120.776 C 15.200 121.203,15.020 121.664,14.800 121.800 C 14.580 121.936,14.400 122.487,14.400 123.024 C 14.400 123.561,14.220 124.000,14.000 124.000 C 13.780 124.000,13.600 124.360,13.600 124.800 C 13.600 125.240,13.420 125.600,13.200 125.600 C 12.980 125.600,12.800 126.039,12.800 126.576 C 12.800 127.113,12.620 127.664,12.400 127.800 C 12.180 127.936,12.000 128.487,12.000 129.024 C 12.000 129.561,11.859 130.000,11.687 130.000 C 11.515 130.000,11.125 130.855,10.820 131.900 C 10.515 132.945,10.132 134.070,9.970 134.400 C 9.409 135.538,8.400 139.294,8.400 140.246 C 8.400 140.771,8.220 141.200,8.000 141.200 C 7.780 141.200,7.600 141.830,7.600 142.600 C 7.600 143.370,7.420 144.000,7.200 144.000 C 6.980 144.000,6.800 144.529,6.800 145.176 C 6.800 145.823,6.620 146.464,6.400 146.600 C 6.180 146.736,6.000 147.467,6.000 148.224 C 6.000 148.981,5.820 149.600,5.600 149.600 C 5.380 149.600,5.200 150.320,5.200 151.200 C 5.200 152.080,5.020 152.800,4.800 152.800 C 4.580 152.800,4.400 153.509,4.400 154.376 C 4.400 155.243,4.220 156.064,4.000 156.200 C 3.780 156.336,3.600 157.247,3.600 158.224 C 3.600 159.201,3.420 160.000,3.200 160.000 C 2.980 160.000,2.800 160.889,2.800 161.976 C 2.800 163.063,2.620 164.064,2.400 164.200 C 2.180 164.336,2.000 165.326,2.000 166.400 C 2.000 167.474,1.820 168.464,1.600 168.600 C 1.380 168.736,1.200 170.172,1.200 171.790 C 1.200 173.789,1.040 174.787,0.700 174.900 C -0.032 175.144,-0.032 224.856,0.700 225.100 C 1.035 225.212,1.200 226.171,1.200 228.010 C 1.200 229.518,1.380 230.864,1.600 231.000 C 1.820 231.136,2.000 232.216,2.000 233.400 C 2.000 234.584,2.180 235.664,2.400 235.800 C 2.620 235.936,2.800 236.937,2.800 238.024 C 2.800 239.111,2.980 240.000,3.200 240.000 C 3.420 240.000,3.600 240.900,3.600 242.000 C 3.600 243.100,3.780 244.000,4.000 244.000 C 4.220 244.000,4.400 244.720,4.400 245.600 C 4.400 246.480,4.580 247.200,4.800 247.200 C 5.020 247.200,5.200 247.920,5.200 248.800 C 5.200 249.680,5.380 250.400,5.600 250.400 C 5.820 250.400,6.000 251.019,6.000 251.776 C 6.000 252.533,6.180 253.264,6.400 253.400 C 6.620 253.536,6.800 254.166,6.800 254.800 C 6.800 255.434,6.980 256.064,7.200 256.200 C 7.420 256.336,7.600 256.977,7.600 257.624 C 7.600 258.271,7.780 258.800,8.000 258.800 C 8.220 258.800,8.400 259.238,8.400 259.772 C 8.400 260.759,10.177 266.823,10.839 268.095 C 11.037 268.477,11.200 269.062,11.200 269.395 C 11.200 269.728,11.380 270.000,11.600 270.000 C 11.820 270.000,12.000 270.439,12.000 270.976 C 12.000 271.513,12.180 272.064,12.400 272.200 C 12.620 272.336,12.800 272.887,12.800 273.424 C 12.800 273.961,12.980 274.400,13.200 274.400 C 13.420 274.400,13.600 274.760,13.600 275.200 C 13.600 275.640,13.780 276.000,14.000 276.000 C 14.220 276.000,14.400 276.439,14.400 276.976 C 14.400 277.513,14.580 278.064,14.800 278.200 C 15.020 278.336,15.200 278.797,15.200 279.224 C 15.200 279.651,15.380 280.000,15.600 280.000 C 15.820 280.000,16.000 280.360,16.000 280.800 C 16.000 281.240,16.180 281.600,16.400 281.600 C 16.620 281.600,16.800 281.872,16.800 282.205 C 16.800 282.538,16.962 283.123,17.159 283.505 C 17.357 283.887,18.300 285.820,19.255 287.800 C 20.211 289.780,21.129 291.460,21.296 291.533 C 21.463 291.607,21.600 292.012,21.600 292.433 C 21.600 292.855,21.780 293.200,22.000 293.200 C 22.220 293.200,22.400 293.560,22.400 294.000 C 22.400 295.859,23.580 295.065,35.800 284.984 C 36.680 284.258,41.090 280.651,45.600 276.970 C 50.110 273.288,55.240 269.079,57.000 267.616 C 58.760 266.153,64.160 261.736,69.000 257.800 C 73.840 253.864,78.447 250.094,79.237 249.422 C 80.028 248.750,81.018 247.929,81.437 247.599 C 81.857 247.268,83.581 245.873,85.269 244.499 C 86.956 243.124,88.621 242.000,88.969 242.000 C 89.333 242.000,89.600 241.662,89.600 241.200 C 89.600 240.760,89.420 240.400,89.200 240.400 C 88.980 240.400,88.800 239.860,88.800 239.200 C 88.800 238.540,88.620 238.000,88.400 238.000 C 88.180 238.000,88.000 237.460,88.000 236.800 C 88.000 236.140,87.820 235.600,87.600 235.600 C 87.380 235.600,87.200 235.060,87.200 234.400 C 87.200 233.740,87.020 233.200,86.800 233.200 C 86.580 233.200,86.400 232.581,86.400 231.824 C 86.400 231.067,86.220 230.336,86.000 230.200 C 85.780 230.064,85.600 229.333,85.600 228.576 C 85.600 227.819,85.420 227.200,85.200 227.200 C 84.980 227.200,84.800 226.480,84.800 225.600 C 84.800 224.720,84.637 224.000,84.437 224.000 C 84.090 224.000,83.852 222.436,83.356 216.900 C 83.233 215.525,82.967 214.400,82.766 214.400 C 82.565 214.400,82.400 212.431,82.400 210.024 C 82.400 207.537,82.227 205.540,82.000 205.400 C 81.767 205.256,81.600 203.004,81.600 200.000 C 81.600 196.996,81.767 194.744,82.000 194.600 C 82.227 194.460,82.400 192.463,82.400 189.976 C 82.400 187.325,82.558 185.600,82.800 185.600 C 83.025 185.600,83.200 184.475,83.200 183.024 C 83.200 181.607,83.380 180.336,83.600 180.200 C 83.820 180.064,84.000 179.063,84.000 177.976 C 84.000 176.889,84.180 176.000,84.400 176.000 C 84.620 176.000,84.800 175.280,84.800 174.400 C 84.800 173.520,84.980 172.800,85.200 172.800 C 85.420 172.800,85.600 172.181,85.600 171.424 C 85.600 170.667,85.780 169.936,86.000 169.800 C 86.220 169.664,86.400 168.933,86.400 168.176 C 86.400 167.419,86.580 166.800,86.800 166.800 C 87.020 166.800,87.200 166.260,87.200 165.600 C 87.200 164.940,87.380 164.400,87.600 164.400 C 88.194 164.400,88.092 161.321,87.490 161.090 C 87.091 160.937,76.110 152.105,71.800 148.472 C 69.479 146.515,60.162 138.890,59.254 138.204 C 58.674 137.766,56.490 135.994,54.400 134.265 C 52.310 132.537,50.240 130.825,49.800 130.461 C 49.360 130.098,43.060 124.943,35.800 119.008 C 28.540 113.072,22.540 108.077,22.467 107.908 C 22.271 107.455,21.865 107.556,21.300 108.198 " stroke="none" fill="#fbbb04" fill-rule="evenodd"></path><path id="path3" d="M203.600 202.200 L 203.600 242.400 256.763 242.400 L 309.925 242.400 309.693 243.289 C 309.565 243.778,309.223 244.633,308.933 245.189 C 308.642 245.745,308.404 246.605,308.402 247.100 C 308.401 247.595,308.220 248.000,308.000 248.000 C 307.780 248.000,307.600 248.360,307.600 248.800 C 307.600 249.240,307.420 249.600,307.200 249.600 C 306.980 249.600,306.800 249.960,306.800 250.400 C 306.800 250.840,306.620 251.200,306.400 251.200 C 306.180 251.200,306.000 251.560,306.000 252.000 C 306.000 252.440,305.820 252.800,305.600 252.800 C 305.380 252.800,305.200 253.160,305.200 253.600 C 305.200 254.040,305.020 254.400,304.800 254.400 C 304.580 254.400,304.400 254.649,304.400 254.954 C 304.400 255.691,303.645 257.088,302.300 258.842 C 301.695 259.630,301.200 260.604,301.200 261.004 C 301.200 261.405,301.083 261.616,300.940 261.473 C 300.630 261.164,299.631 262.386,299.613 263.095 C 299.601 263.558,298.899 264.554,297.685 265.831 C 297.402 266.128,296.905 267.008,296.580 267.786 C 296.255 268.564,295.711 269.200,295.371 269.200 C 295.031 269.200,294.851 269.359,294.971 269.552 C 295.090 269.746,294.664 270.505,294.024 271.239 C 293.383 271.972,292.947 272.714,293.053 272.886 C 293.160 273.059,292.967 273.200,292.624 273.200 C 292.281 273.200,292.000 273.429,292.000 273.710 C 292.000 273.990,291.100 275.149,290.000 276.284 C 288.900 277.419,288.000 278.453,288.000 278.582 C 288.000 278.872,278.915 288.000,278.626 288.000 C 278.512 288.000,277.475 288.900,276.322 290.000 C 275.169 291.100,273.994 292.000,273.713 292.000 C 273.431 292.000,273.200 292.281,273.200 292.624 C 273.200 292.967,273.048 293.153,272.861 293.038 C 272.675 292.923,271.962 293.377,271.276 294.047 C 270.591 294.717,269.864 295.163,269.660 295.037 C 269.457 294.912,269.197 295.167,269.083 295.604 C 268.959 296.079,268.537 296.400,268.037 296.400 C 267.577 296.400,267.200 296.580,267.200 296.800 C 267.200 297.020,267.012 297.200,266.783 297.200 C 266.554 297.200,265.980 297.560,265.508 298.000 C 265.036 298.440,264.144 299.024,263.525 299.297 C 262.906 299.571,262.400 299.931,262.400 300.098 C 262.400 300.264,262.119 300.400,261.776 300.400 C 261.433 300.400,261.264 300.580,261.400 300.800 C 261.536 301.020,261.287 301.200,260.847 301.200 C 260.407 301.200,259.936 301.380,259.800 301.600 C 259.664 301.820,259.756 302.000,260.005 302.000 C 260.254 302.000,260.692 302.234,260.978 302.521 C 261.265 302.807,262.258 303.662,263.185 304.421 C 264.113 305.179,265.261 306.133,265.736 306.540 C 266.211 306.946,267.296 307.846,268.147 308.540 C 268.998 309.233,269.898 309.986,270.147 310.214 C 270.396 310.442,271.950 311.701,273.600 313.012 C 275.250 314.324,276.690 315.487,276.800 315.598 C 276.910 315.709,277.990 316.610,279.200 317.599 C 282.561 320.347,282.815 320.556,283.580 321.200 C 283.973 321.530,284.889 322.250,285.616 322.800 C 286.343 323.350,287.314 324.160,287.772 324.600 C 288.230 325.040,289.264 325.892,290.068 326.494 C 290.873 327.096,291.771 327.816,292.065 328.094 C 292.508 328.513,295.900 331.269,299.335 334.000 C 299.750 334.330,300.294 334.781,300.545 335.002 C 300.795 335.223,301.990 336.210,303.200 337.195 C 304.410 338.180,305.670 339.267,306.000 339.612 C 306.330 339.956,307.230 340.671,308.000 341.200 C 308.770 341.729,309.670 342.443,310.000 342.785 C 310.330 343.128,311.259 343.899,312.065 344.498 C 312.871 345.098,313.772 345.816,314.066 346.094 C 314.360 346.372,316.401 348.040,318.600 349.800 C 320.799 351.560,323.016 353.409,323.525 353.908 C 325.689 356.027,326.266 356.195,327.801 355.149 C 328.568 354.627,329.196 353.987,329.197 353.727 C 329.199 353.467,329.560 353.140,330.000 353.000 C 330.440 352.860,330.800 352.599,330.800 352.420 C 330.800 352.240,331.178 351.994,331.640 351.874 C 332.102 351.753,332.363 351.464,332.219 351.232 C 332.071 350.992,332.185 350.896,332.482 351.010 C 332.770 351.121,333.184 350.804,333.403 350.305 C 333.621 349.807,333.938 349.448,334.106 349.506 C 334.532 349.653,337.125 347.068,336.920 346.700 C 336.828 346.535,336.949 346.400,337.190 346.400 C 337.430 346.400,338.257 345.770,339.027 345.000 C 339.797 344.230,340.325 343.600,340.200 343.600 C 340.075 343.600,340.718 342.925,341.628 342.100 C 342.538 341.275,343.804 340.123,344.442 339.540 C 345.079 338.956,345.600 338.251,345.600 337.973 C 345.600 337.694,345.709 337.576,345.842 337.709 C 346.088 337.955,351.200 332.955,351.200 332.467 C 351.201 332.320,351.651 331.677,352.200 331.038 C 352.750 330.399,353.200 329.724,353.200 329.538 C 353.200 329.352,353.399 329.200,353.642 329.200 C 354.146 329.200,355.848 327.164,355.708 326.731 C 355.657 326.574,356.062 326.095,356.608 325.665 C 357.153 325.236,357.600 324.723,357.600 324.526 C 357.600 324.328,358.230 323.499,359.000 322.682 C 359.770 321.866,360.400 321.008,360.400 320.775 C 360.400 320.543,360.580 320.464,360.800 320.600 C 361.020 320.736,361.200 320.558,361.200 320.205 C 361.200 319.852,361.650 319.114,362.200 318.564 C 362.750 318.014,363.200 317.420,363.200 317.244 C 363.200 317.068,363.650 316.401,364.200 315.762 C 364.749 315.123,365.199 314.415,365.200 314.188 C 365.200 313.962,365.560 313.517,366.000 313.200 C 366.440 312.883,366.800 312.331,366.800 311.974 C 366.800 311.616,367.160 310.998,367.600 310.600 C 368.040 310.202,368.400 309.634,368.400 309.338 C 368.400 309.042,368.547 308.800,368.726 308.800 C 368.906 308.800,369.477 308.035,369.997 307.100 C 370.516 306.165,371.134 305.268,371.370 305.106 C 371.607 304.944,371.652 304.809,371.471 304.806 C 371.291 304.803,371.381 304.536,371.671 304.214 C 373.175 302.547,374.899 299.433,374.526 299.059 C 374.383 298.917,374.477 298.800,374.733 298.800 C 374.990 298.800,375.200 298.440,375.200 298.000 C 375.200 297.560,375.380 297.200,375.600 297.200 C 375.820 297.200,376.006 296.885,376.013 296.500 C 376.030 295.575,376.992 294.334,377.404 294.706 C 377.582 294.868,377.608 294.790,377.460 294.532 C 377.313 294.275,377.464 293.793,377.796 293.461 C 378.128 293.129,378.400 292.589,378.400 292.262 C 378.400 291.935,378.542 291.607,378.715 291.533 C 379.087 291.376,381.200 287.104,381.200 286.509 C 381.200 286.283,381.470 285.874,381.800 285.600 C 382.130 285.326,382.400 284.674,382.400 284.151 C 382.400 283.628,382.580 283.200,382.800 283.200 C 383.020 283.200,383.200 282.840,383.200 282.400 C 383.200 281.960,383.380 281.600,383.600 281.600 C 383.820 281.600,384.000 281.358,384.000 281.061 C 384.000 280.765,384.287 279.947,384.638 279.244 C 384.989 278.541,385.311 277.748,385.353 277.483 C 385.474 276.722,386.572 274.400,386.810 274.400 C 386.929 274.400,387.066 273.905,387.116 273.300 C 387.166 272.695,387.385 272.140,387.603 272.067 C 387.822 271.993,388.000 271.646,388.000 271.295 C 388.000 270.379,388.907 268.000,389.255 268.000 C 389.418 268.000,389.543 267.685,389.533 267.300 C 389.524 266.915,389.864 265.696,390.290 264.590 C 390.716 263.485,391.036 262.189,391.001 261.709 C 390.965 261.229,391.086 260.929,391.268 261.042 C 391.451 261.155,391.600 260.697,391.600 260.024 C 391.600 259.351,391.780 258.800,392.000 258.800 C 392.220 258.800,392.400 258.181,392.400 257.424 C 392.400 256.667,392.580 255.936,392.800 255.800 C 393.020 255.664,393.200 255.034,393.200 254.400 C 393.200 253.766,393.380 253.136,393.600 253.000 C 393.820 252.864,394.000 252.234,394.000 251.600 C 394.000 250.966,394.180 250.336,394.400 250.200 C 394.620 250.064,394.800 249.333,394.800 248.576 C 394.800 247.819,394.980 247.200,395.200 247.200 C 395.420 247.200,395.600 246.300,395.600 245.200 C 395.600 244.100,395.743 243.200,395.918 243.200 C 396.093 243.200,396.282 242.525,396.337 241.701 C 396.393 240.876,396.610 240.030,396.819 239.821 C 397.029 239.611,397.200 238.576,397.200 237.520 C 397.200 236.464,397.349 235.600,397.532 235.600 C 397.714 235.600,397.904 234.565,397.955 233.300 C 398.005 232.035,398.216 230.829,398.423 230.620 C 398.630 230.411,398.800 229.121,398.800 227.753 C 398.800 226.137,398.973 225.209,399.294 225.102 C 400.133 224.822,399.994 174.800,399.154 174.800 C 398.959 174.800,398.800 173.540,398.800 172.000 C 398.800 170.400,398.629 169.200,398.400 169.200 C 398.180 169.200,398.000 168.221,398.000 167.024 C 398.000 165.827,397.820 164.736,397.600 164.600 C 397.380 164.464,397.200 163.823,397.200 163.176 L 397.200 162.000 300.400 162.000 L 203.600 162.000 203.600 202.200 " stroke="none" fill="#548cfc" fill-rule="evenodd"></path><path id="path4" d="M260.000 302.343 C 260.000 302.531,261.395 303.831,263.100 305.230 C 264.805 306.629,268.270 309.468,270.800 311.540 C 273.330 313.611,276.210 315.985,277.200 316.816 C 278.190 317.646,280.640 319.648,282.644 321.263 C 287.918 325.515,298.924 334.504,299.446 334.987 C 300.596 336.051,321.127 352.788,323.014 354.200 C 324.190 355.080,325.163 356.025,325.176 356.300 C 325.210 357.016,326.000 356.920,326.000 356.200 C 326.000 355.870,325.858 355.600,325.683 355.600 C 325.509 355.600,324.740 355.015,323.975 354.300 C 323.209 353.585,320.787 351.560,318.592 349.800 C 316.397 348.040,314.360 346.372,314.066 346.094 C 313.772 345.816,312.871 345.098,312.065 344.498 C 311.259 343.899,310.330 343.128,310.000 342.785 C 309.670 342.443,308.770 341.729,308.000 341.200 C 307.230 340.671,306.330 339.956,306.000 339.612 C 305.487 339.076,302.938 336.939,300.262 334.800 C 299.849 334.470,299.306 334.020,299.055 333.800 C 298.805 333.580,297.250 332.320,295.600 331.000 C 293.950 329.680,292.359 328.372,292.065 328.094 C 291.771 327.816,290.873 327.096,290.068 326.494 C 289.264 325.892,288.230 325.040,287.772 324.600 C 287.314 324.160,286.343 323.350,285.616 322.800 C 284.889 322.250,283.973 321.530,283.580 321.200 C 282.815 320.556,282.561 320.347,279.200 317.599 C 277.990 316.610,276.910 315.709,276.800 315.598 C 276.690 315.487,275.250 314.324,273.600 313.012 C 271.950 311.701,270.396 310.442,270.147 310.214 C 269.898 309.986,268.998 309.233,268.147 308.540 C 267.296 307.846,266.211 306.946,265.736 306.540 C 265.261 306.133,264.113 305.179,263.185 304.421 C 262.258 303.662,261.265 302.807,260.978 302.521 C 260.377 301.920,260.000 301.851,260.000 302.343 " stroke="none" fill="#4995d7" fill-rule="evenodd"></path></g></svg>